<?xml version="1.0" encoding="UTF-8" standalone="no"?>
<svg
   xmlns:dc="http://purl.org/dc/elements/1.1/"
   xmlns:cc="http://creativecommons.org/ns#"
   xmlns:rdf="http://www.w3.org/1999/02/22-rdf-syntax-ns#"
   xmlns:svg="http://www.w3.org/2000/svg"
   xmlns="http://www.w3.org/2000/svg"
   xmlns:sodipodi="http://sodipodi.sourceforge.net/DTD/sodipodi-0.dtd"
   xmlns:inkscape="http://www.inkscape.org/namespaces/inkscape"
   inkscape:version="1.0 (4035a4fb49, 2020-05-01)"
   id="svg8"
   version="1.1"
   viewBox="0 0 17.04258 4.654738"
   height="4.6547379mm"
   width="17.04258mm"
   sodipodi:docname="logo-maqa.svg">
  <defs
     id="defs2" />
  <sodipodi:namedview
     borderlayer="true"
     inkscape:showpageshadow="false"
     fit-margin-bottom="0"
     fit-margin-right="0"
     fit-margin-left="0"
     fit-margin-top="0"
     showgrid="false"
     inkscape:document-rotation="0"
     inkscape:current-layer="layer2"
     inkscape:document-units="mm"
     inkscape:cy="20.123551"
     inkscape:cx="27.166997"
     inkscape:zoom="7.9195959"
     inkscape:pageshadow="2"
     inkscape:pageopacity="1"
     borderopacity="1"
     bordercolor="#000000"
     pagecolor="#282828"
     id="base"
     inkscape:window-width="1260"
     inkscape:window-height="1040"
     inkscape:window-x="130"
     inkscape:window-y="0"
     inkscape:window-maximized="0" />
  <metadata
     id="metadata5">
    <rdf:RDF>
      <cc:Work
         rdf:about="">
        <dc:format>image/svg+xml</dc:format>
        <dc:type
           rdf:resource="http://purl.org/dc/dcmitype/StillImage" />
        <dc:title />
      </cc:Work>
    </rdf:RDF>
  </metadata>
  <g
     inkscape:label="Contents"
     id="layer2"
     inkscape:groupmode="layer"
     transform="translate(-138.36646,-131.74093)">
    <path
       id="path205"
       d="m 138.6016,135.52522 c 1.44381,-0.75491 5.0006,0.107 7.49317,0.49553 1.9827,0.30907 3.07786,0.11785 3.43979,0.0179 -3.67991,1.30159 -7.30448,-1.44489 -10.93296,-0.51348 z"
       class="d"
       style="fill-opacity:1;stroke-width:0.264583" />
    <polygon
       id="polygon207"
       points="291.083,329.899 290.263,327.776 289.443,329.899 "
       class="d"
       style="fill-opacity:1"
       transform="matrix(0.26458333,0,0,0.26458333,69.175927,46.735435)" />
    <polygon
       id="polygon209"
       points="310.788,329.899 309.967,327.776 309.147,329.899 "
       class="d"
       style="fill-opacity:1"
       transform="matrix(0.26458333,0,0,0.26458333,69.175927,46.735435)" />
    <path
       id="path211"
       d="m 148.84151,133.34635 a 0.50325337,0.50325337 0 0 0 -0.50733,0 0.49200329,0.49200329 0 0 0 -0.18026,0.19459 0.68383944,0.68383944 0 0 0 0,0.59027 0.49092644,0.49092644 0 0 0 0.18026,0.19465 0.50325337,0.50325337 0 0 0 0.50733,0 0.4909529,0.4909529 0 0 0 0.18027,-0.19465 0.68383944,0.68383944 0 0 0 0,-0.59027 0.49202975,0.49202975 0 0 0 -0.18027,-0.19459 z"
       class="d"
       style="fill-opacity:1;stroke-width:0.264583" />
    <path
       id="path213"
       d="m 149.65861,132.00226 c -7.34695,-0.80963 -8.45939,0.25628 -11.29215,3.27708 2.83276,-0.40795 1.73937,-0.1884 4.90614,0.11527 8.64251,0.82874 10.60785,-0.14793 12.13644,-3.02688 -2.54765,0.50953 -2.88233,-0.0494 -5.75043,-0.36547 z m -5.83108,2.95053 -0.006,-1.01782 -0.48498,0.8168 h -0.33177 l -0.48498,-0.78164 v 0.98266 h -0.68595 v -2.23338 h 0.61895 l 0.72745,1.19007 0.70833,-1.19007 h 0.61892 l 0.006,2.23338 z m 2.72153,0 -0.14997,-0.38924 h -0.84866 l -0.14997,0.38924 h -0.76573 l 0.97629,-2.23338 h 0.74023 l 0.97629,2.23338 z m 3.13632,0.49294 a 0.91450848,0.91450848 0 0 1 -0.36689,0.0718 1.2169378,1.2169378 0 0 1 -0.36053,-0.0494 1.0935864,1.0935864 0 0 1 -0.31905,-0.16594 2.8395904,2.8395904 0 0 1 -0.36374,-0.33022 1.2124108,1.2124108 0 0 1 -0.49451,-0.21851 1.1443467,1.1443467 0 0 1 0.1595,-1.93509 1.4736974,1.4736974 0 0 1 1.2954,0 1.1613436,1.1613436 0 0 1 0.41796,1.66703 1.1428016,1.1428016 0 0 1 -0.52646,0.41638 0.29064215,0.29064215 0 0 0 0.0973,0.0718 0.28299569,0.28299569 0 0 0 0.11007,0.0207 0.43272604,0.43272604 0 0 0 0.30946,-0.14359 l 0.32544,0.38286 a 0.76197619,0.76197619 0 0 1 -0.28397,0.2122 z m 2.07705,-0.49294 -0.14991,-0.38924 h -0.84873 l -0.14996,0.38924 h -0.76573 l 0.97635,-2.23338 h 0.74017 l 0.97635,2.23338 z"
       class="d"
       style="fill-opacity:1;stroke-width:0.264583" />
  </g>
  <inkscape:templateinfo>
    <inkscape:name>Dark background</inkscape:name>
    <inkscape:date>2020-09-02</inkscape:date>
  </inkscape:templateinfo>
</svg>
